<svg xmlns="http://www.w3.org/2000/svg" xmlns:xlink="http://www.w3.org/1999/xlink" width="1123" zoomAndPan="magnify" viewBox="0 0 842.25 595.499986" height="794" preserveAspectRatio="xMidYMid meet" version="1.2"><defs><clipPath id="0def019014"><path d="M 34.496094 35.015625 L 229.453125 35.015625 L 229.453125 229.972656 L 34.496094 229.972656 Z M 34.496094 35.015625 "/></clipPath><clipPath id="885a46c1ef"><path d="M 131.976562 35.015625 C 78.140625 35.015625 34.496094 78.660156 34.496094 132.496094 C 34.496094 186.332031 78.140625 229.972656 131.976562 229.972656 C 185.8125 229.972656 229.453125 186.332031 229.453125 132.496094 C 229.453125 78.660156 185.8125 35.015625 131.976562 35.015625 Z M 131.976562 35.015625 "/></clipPath><clipPath id="f9a3a27cb9"><path d="M 0.496094 0.015625 L 195.453125 0.015625 L 195.453125 194.972656 L 0.496094 194.972656 Z M 0.496094 0.015625 "/></clipPath><clipPath id="c1c566a0fc"><path d="M 97.976562 0.015625 C 44.140625 0.015625 0.496094 43.660156 0.496094 97.496094 C 0.496094 151.332031 44.140625 194.972656 97.976562 194.972656 C 151.8125 194.972656 195.453125 151.332031 195.453125 97.496094 C 195.453125 43.660156 151.8125 0.015625 97.976562 0.015625 Z M 97.976562 0.015625 "/></clipPath><clipPath id="03df59caf3"><rect x="0" width="196" y="0" height="195"/></clipPath><clipPath id="e3dbfc0a3b"><path d="M 0.46875 0.191406 L 264 0.191406 L 264 264.917969 L 0.46875 264.917969 Z M 0.46875 0.191406 "/></clipPath><clipPath id="9ab4101e15"><path d="M 263.445312 96.625 L 164.949219 264.804688 L 0.648438 168.585938 L 99.140625 0.402344 Z M 263.445312 96.625 "/></clipPath><clipPath id="02dc32312c"><path d="M 34 75 L 201 75 L 201 230 L 34 230 Z M 34 75 "/></clipPath><clipPath id="f1bfac0713"><path d="M 263.445312 96.625 L 164.949219 264.804688 L 0.648438 168.585938 L 99.140625 0.402344 Z M 263.445312 96.625 "/></clipPath><clipPath id="6e3d629077"><path d="M 165.011719 264.703125 L 263.503906 96.523438 L 99.203125 0.300781 L 0.710938 168.484375 Z M 165.011719 264.703125 "/></clipPath><clipPath id="483bcf6166"><path d="M 164.125 264.179688 L 228.960938 153.464844 L 65.34375 57.644531 L 0.503906 168.359375 Z M 164.125 264.179688 "/></clipPath><clipPath id="d40ad072de"><path d="M 63 35 L 230 35 L 230 189 L 63 189 Z M 63 35 "/></clipPath><clipPath id="3fb9892071"><path d="M 263.445312 96.625 L 164.949219 264.804688 L 0.648438 168.585938 L 99.140625 0.402344 Z M 263.445312 96.625 "/></clipPath><clipPath id="6397e3cef0"><path d="M 165.011719 264.703125 L 263.503906 96.523438 L 99.203125 0.300781 L 0.710938 168.484375 Z M 165.011719 264.703125 "/></clipPath><clipPath id="421949e779"><path d="M 198.601562 207.339844 L 263.433594 96.636719 L 99.8125 0.8125 L 34.980469 111.519531 Z M 198.601562 207.339844 "/></clipPath><clipPath id="0ad53e41f1"><rect x="0" width="264" y="0" height="265"/></clipPath><clipPath id="25c7b969ae"><path d="M 239 24 L 713.832031 24 L 713.832031 218 L 239 218 Z M 239 24 "/></clipPath><clipPath id="84df1b8af2"><rect x="0" width="475" y="0" height="194"/></clipPath><clipPath id="19d813a035"><rect x="0" width="714" y="0" height="265"/></clipPath></defs><g id="455ac8ad71"><g transform="matrix(1,0,0,1,59,160)"><g clip-path="url(#19d813a035)"><g clip-rule="nonzero" clip-path="url(#0def019014)"><g clip-rule="nonzero" clip-path="url(#885a46c1ef)"><g transform="matrix(1,0,0,1,34,35)"><g id="5b2135b387" clip-path="url(#03df59caf3)"><g clip-rule="nonzero" clip-path="url(#f9a3a27cb9)"><g clip-rule="nonzero" clip-path="url(#c1c566a0fc)"><path style=" stroke:none;fill-rule:nonzero;fill:#ffffff;fill-opacity:1;" d="M 0.496094 0.015625 L 195.453125 0.015625 L 195.453125 194.972656 L 0.496094 194.972656 Z M 0.496094 0.015625 "/></g></g></g></g></g></g><g clip-rule="nonzero" clip-path="url(#e3dbfc0a3b)"><g clip-rule="nonzero" clip-path="url(#9ab4101e15)"><g transform="matrix(1,0,0,1,0,-0.000000000000028422)"><g id="e941a5639b" clip-path="url(#0ad53e41f1)"><g clip-rule="nonzero" clip-path="url(#02dc32312c)"><g clip-rule="nonzero" clip-path="url(#f1bfac0713)"><g clip-rule="nonzero" clip-path="url(#6e3d629077)"><g clip-rule="nonzero" clip-path="url(#483bcf6166)"><path style=" stroke:none;fill-rule:nonzero;fill:#06e0f8;fill-opacity:1;" d="M 39.617188 101.609375 C 39.226562 108.902344 40.628906 115.902344 43.171875 121.996094 C 45.726562 128.105469 49.484375 133.304688 53.769531 137.359375 C 58.054688 141.441406 62.867188 144.347656 67.617188 146.277344 C 72.386719 148.207031 77.125 149.125 81.460938 149.351562 C 85.804688 149.578125 89.765625 149.128906 93.195312 148.316406 C 96.628906 147.484375 99.539062 146.339844 101.953125 145.167969 C 102.554688 144.867188 103.117188 144.542969 103.660156 144.25 C 104.199219 143.945312 104.730469 143.695312 105.195312 143.363281 C 106.136719 142.726562 107.011719 142.214844 107.730469 141.648438 C 108.453125 141.09375 109.089844 140.601562 109.632812 140.179688 C 110.160156 139.722656 110.582031 139.324219 110.929688 139.011719 C 111.609375 138.382812 111.964844 138.058594 111.964844 138.058594 C 111.964844 138.058594 111.542969 138.289062 110.730469 138.738281 C 110.324219 138.960938 109.828125 139.246094 109.226562 139.558594 C 108.613281 139.847656 107.902344 140.175781 107.097656 140.550781 C 106.304688 140.933594 105.355469 141.234375 104.359375 141.632812 C 103.863281 141.839844 103.3125 141.976562 102.753906 142.15625 C 102.195312 142.324219 101.621094 142.515625 101.011719 142.679688 C 98.5625 143.28125 95.734375 143.796875 92.570312 143.964844 C 89.40625 144.097656 85.917969 143.847656 82.292969 143.035156 C 78.671875 142.214844 74.921875 140.804688 71.332031 138.671875 C 70.457031 138.085938 69.554688 137.542969 68.683594 136.921875 C 68.257812 136.601562 67.816406 136.289062 67.390625 135.957031 C 66.972656 135.617188 66.554688 135.269531 66.132812 134.921875 C 64.484375 133.488281 62.921875 131.890625 61.511719 130.117188 C 58.683594 126.578125 56.425781 122.351562 55.121094 117.695312 C 53.828125 113.042969 53.425781 107.980469 54.238281 102.992188 C 54.648438 100.503906 55.316406 98.035156 56.277344 95.65625 C 57.261719 93.296875 58.53125 90.972656 60.035156 88.890625 C 61.542969 86.824219 63.285156 84.914062 65.316406 83.277344 C 67.339844 81.636719 69.59375 80.230469 72.019531 79.089844 C 76.890625 76.851562 82.472656 75.707031 88.035156 75.972656 C 89.425781 76.011719 90.8125 76.191406 92.183594 76.390625 C 93.546875 76.652344 94.910156 76.925781 96.230469 77.339844 C 97.5625 77.710938 98.835938 78.230469 100.101562 78.753906 C 101.339844 79.347656 102.566406 79.949219 103.710938 80.6875 C 104.882812 81.378906 105.957031 82.210938 107.023438 83.050781 C 107.933594 83.871094 108.824219 84.683594 109.609375 85.671875 C 110.425781 86.605469 111.144531 87.695312 111.851562 88.816406 C 112.167969 89.421875 112.539062 89.96875 112.832031 90.617188 L 113.304688 91.558594 L 113.734375 92.550781 C 114.890625 95.195312 115.808594 98.214844 116.566406 101.417969 C 116.941406 103.023438 117.28125 104.683594 117.582031 106.394531 L 117.808594 107.679688 L 118.035156 109.019531 C 118.183594 109.910156 118.328125 110.804688 118.464844 111.703125 C 119.5625 118.890625 120.414062 126.242188 121.152344 133.707031 C 121.515625 137.464844 121.878906 141.226562 122.242188 144.980469 L 122.785156 150.671875 L 123.070312 153.527344 L 123.402344 156.582031 C 123.902344 160.710938 124.625 164.929688 125.757812 169.175781 C 126.890625 173.417969 128.398438 177.710938 130.527344 181.859375 C 132.644531 186 135.375 189.996094 138.6875 193.472656 C 139.53125 194.328125 140.40625 195.152344 141.273438 195.976562 C 142.1875 196.746094 143.105469 197.511719 144.027344 198.253906 C 145.914062 199.644531 147.839844 200.96875 149.875 202.078125 C 151.882812 203.242188 153.996094 204.167969 156.109375 205.03125 C 158.25 205.824219 160.402344 206.542969 162.59375 207.046875 C 166.960938 208.125 171.398438 208.578125 175.761719 208.496094 C 180.128906 208.433594 184.429688 207.835938 188.550781 206.714844 C 192.625 205.617188 196.542969 204.074219 200.167969 202.039062 C 169.566406 232.082031 121.542969 239.242188 82.761719 216.53125 C 42.261719 192.8125 25.238281 144.359375 39.621094 101.566406 C 39.621094 101.578125 39.617188 101.59375 39.617188 101.609375 "/></g></g></g></g><g clip-rule="nonzero" clip-path="url(#d40ad072de)"><g clip-rule="nonzero" clip-path="url(#3fb9892071)"><g clip-rule="nonzero" clip-path="url(#6397e3cef0)"><g clip-rule="nonzero" clip-path="url(#421949e779)"><path style=" stroke:none;fill-rule:nonzero;fill:#cce235;fill-opacity:1;" d="M 224.34375 163.355469 C 224.734375 156.0625 223.328125 149.058594 220.785156 142.957031 C 218.230469 136.84375 214.46875 131.644531 210.179688 127.585938 C 205.890625 123.503906 201.074219 120.597656 196.324219 118.664062 C 191.550781 116.738281 186.8125 115.816406 182.472656 115.59375 C 178.125 115.371094 174.164062 115.820312 170.734375 116.636719 C 167.300781 117.46875 164.390625 118.617188 161.972656 119.789062 C 161.371094 120.089844 160.8125 120.414062 160.269531 120.707031 C 159.730469 121.015625 159.199219 121.261719 158.734375 121.59375 C 157.792969 122.230469 156.917969 122.746094 156.195312 123.308594 C 155.476562 123.867188 154.84375 124.359375 154.292969 124.785156 C 153.769531 125.238281 153.347656 125.640625 153 125.949219 C 152.316406 126.582031 151.964844 126.90625 151.964844 126.90625 C 151.964844 126.90625 152.386719 126.675781 153.203125 126.226562 C 153.609375 126.007812 154.105469 125.71875 154.703125 125.40625 C 155.316406 125.121094 156.027344 124.789062 156.835938 124.417969 C 157.628906 124.039062 158.578125 123.730469 159.574219 123.335938 C 160.070312 123.128906 160.621094 122.992188 161.179688 122.8125 C 161.738281 122.648438 162.3125 122.457031 162.921875 122.292969 C 165.367188 121.691406 168.199219 121.175781 171.363281 121.011719 C 174.527344 120.878906 178.015625 121.132812 181.636719 121.945312 C 185.253906 122.769531 189.003906 124.175781 192.589844 126.3125 C 193.460938 126.898438 194.363281 127.441406 195.234375 128.0625 C 195.660156 128.386719 196.101562 128.695312 196.527344 129.027344 C 196.941406 129.367188 197.359375 129.714844 197.785156 130.0625 C 199.429688 131.496094 200.992188 133.09375 202.402344 134.863281 C 205.222656 138.402344 207.480469 142.625 208.78125 147.277344 C 210.074219 151.929688 210.472656 156.984375 209.660156 161.96875 C 209.25 164.453125 208.585938 166.921875 207.621094 169.296875 C 206.636719 171.652344 205.375 173.980469 203.871094 176.054688 C 202.363281 178.121094 200.625 180.03125 198.59375 181.664062 C 196.570312 183.300781 194.324219 184.710938 191.898438 185.847656 C 187.03125 188.082031 181.453125 189.222656 175.894531 188.960938 C 174.503906 188.925781 173.121094 188.742188 171.75 188.542969 C 170.390625 188.277344 169.027344 188.015625 167.707031 187.597656 C 166.375 187.230469 165.101562 186.710938 163.835938 186.183594 C 162.605469 185.59375 161.375 184.988281 160.230469 184.257812 C 159.058594 183.566406 157.984375 182.734375 156.921875 181.898438 L 155.449219 180.574219 L 154.097656 179.144531 C 152.347656 177.175781 150.878906 174.902344 149.664062 172.328125 C 147.207031 167.195312 145.832031 160.886719 145.09375 154.082031 L 144.839844 151.476562 L 144.597656 148.652344 L 144.09375 142.980469 C 143.753906 139.183594 143.414062 135.355469 143.027344 131.507812 C 142.238281 123.8125 141.324219 116.023438 140 108.222656 C 139.839844 107.25 139.667969 106.273438 139.492188 105.300781 L 139.226562 103.835938 L 138.933594 102.332031 C 138.535156 100.324219 138.078125 98.28125 137.546875 96.226562 C 136.46875 92.109375 135.152344 87.898438 133.171875 83.726562 L 132.421875 82.167969 L 131.59375 80.617188 C 131.0625 79.585938 130.394531 78.570312 129.789062 77.558594 C 128.453125 75.558594 127.035156 73.578125 125.34375 71.765625 C 123.710938 69.921875 121.824219 68.261719 119.886719 66.726562 C 118.003906 65.335938 116.078125 64.011719 114.042969 62.902344 C 112.035156 61.75 109.925781 60.820312 107.8125 59.957031 C 105.671875 59.167969 103.519531 58.445312 101.328125 57.941406 C 96.960938 56.867188 92.527344 56.414062 88.167969 56.496094 C 83.804688 56.558594 79.507812 57.164062 75.386719 58.277344 C 71.324219 59.371094 67.414062 60.914062 63.800781 62.9375 C 94.402344 32.910156 142.414062 25.761719 181.183594 48.46875 C 221.667969 72.179688 238.695312 120.601562 224.34375 163.386719 C 224.34375 163.378906 224.34375 163.367188 224.34375 163.355469 "/></g></g></g></g></g></g></g></g><g clip-rule="nonzero" clip-path="url(#25c7b969ae)"><g transform="matrix(1,0,0,1,239,24)"><g id="4ce165b056" clip-path="url(#84df1b8af2)"><g style="fill:#ffffff;fill-opacity:1;"><g transform="translate(0.816761, 80.228342)"><path style="stroke:none" d="M 6.34375 0 L 6.34375 -57.375 L 34.25 -57.375 C 41.320312 -57.3125 46.535156 -55.960938 49.890625 -53.328125 C 53.253906 -50.691406 54.9375 -46.878906 54.9375 -41.890625 C 54.9375 -38.648438 53.976562 -35.851562 52.0625 -33.5 C 50.15625 -31.15625 47.226562 -29.664062 43.28125 -29.03125 L 43.28125 -28.9375 C 47.6875 -28.363281 50.972656 -26.84375 53.140625 -24.375 C 55.316406 -21.914062 56.40625 -18.945312 56.40625 -15.46875 C 56.40625 -10.539062 54.664062 -6.726562 51.1875 -4.03125 C 47.71875 -1.34375 42.503906 0 35.546875 0 Z M 20.78125 -10.515625 L 33.03125 -10.515625 C 35.75 -10.515625 37.773438 -11.066406 39.109375 -12.171875 C 40.441406 -13.273438 41.109375 -14.867188 41.109375 -16.953125 C 41.109375 -18.972656 40.441406 -20.519531 39.109375 -21.59375 C 37.773438 -22.664062 35.75 -23.203125 33.03125 -23.203125 L 20.78125 -23.203125 Z M 20.78125 -33.90625 L 31.640625 -33.90625 C 36.972656 -33.90625 39.640625 -35.988281 39.640625 -40.15625 C 39.640625 -44.332031 36.972656 -46.421875 31.640625 -46.421875 L 20.78125 -46.421875 Z M 20.78125 -33.90625 "/></g></g><g style="fill:#ffffff;fill-opacity:1;"><g transform="translate(60.271435, 80.228342)"><path style="stroke:none" d="M 21.296875 -57.375 L 21.296875 0 L 6.34375 0 L 6.34375 -57.375 Z M 21.296875 -57.375 "/></g></g><g style="fill:#ffffff;fill-opacity:1;"><g transform="translate(87.91264, 80.228342)"><path style="stroke:none" d="M 14.953125 -6.265625 L 12.34375 -11.296875 L 52.40625 -11.296875 L 52.40625 0 L 3.21875 0 L 3.21875 -10.78125 L 39.8125 -51.109375 L 42.421875 -46.0625 L 3.828125 -46.0625 L 3.828125 -57.375 L 51.375 -57.375 L 51.375 -46.59375 Z M 14.953125 -6.265625 "/></g></g><g style="fill:#ffffff;fill-opacity:1;"><g transform="translate(143.021207, 80.228342)"><path style="stroke:none" d="M 17.390625 0 L 0.875 -57.375 L 16.78125 -57.375 L 26.515625 -12.078125 L 36.765625 -57.375 L 50.328125 -57.375 L 60.84375 -12.171875 L 70.40625 -57.375 L 85.796875 -57.375 L 69.1875 0 L 52.9375 0 L 46.15625 -27.8125 L 43.546875 -41.8125 L 43.375 -41.8125 L 40.859375 -27.8125 L 34.15625 0 Z M 17.390625 0 "/></g></g><g style="fill:#ffffff;fill-opacity:1;"><g transform="translate(229.682478, 80.228342)"><path style="stroke:none" d="M 21.296875 -57.375 L 21.296875 0 L 6.34375 0 L 6.34375 -57.375 Z M 21.296875 -57.375 "/></g></g><g style="fill:#ffffff;fill-opacity:1;"><g transform="translate(257.323683, 80.228342)"><path style="stroke:none" d="M 54.59375 -57.375 L 54.59375 -45.8125 L 35.90625 -45.8125 L 35.90625 0 L 20.953125 0 L 20.953125 -45.8125 L 2.171875 -45.8125 L 2.171875 -57.375 Z M 54.59375 -57.375 "/></g></g><g style="fill:#ffffff;fill-opacity:1;"><g transform="translate(0.816761, 172.651583)"><path style="stroke:none" d="M 32.375 -55.078125 C 38.945312 -55.078125 44.050781 -53.53125 47.6875 -50.4375 C 51.332031 -47.351562 53.15625 -43.253906 53.15625 -38.140625 C 53.15625 -32.515625 51.347656 -28.226562 47.734375 -25.28125 C 44.117188 -22.332031 39.03125 -20.859375 32.46875 -20.859375 L 31.125 -20.109375 L 20.203125 -20.109375 L 20.203125 0 L 6.09375 0 L 6.09375 -55.078125 Z M 30.375 -30.296875 C 33.15625 -30.296875 35.238281 -30.847656 36.625 -31.953125 C 38.019531 -33.066406 38.71875 -34.847656 38.71875 -37.296875 C 38.71875 -39.691406 38.019531 -41.445312 36.625 -42.5625 C 35.238281 -43.675781 33.15625 -44.234375 30.375 -44.234375 L 20.203125 -44.234375 L 20.203125 -30.296875 Z M 38.8125 -27.296875 L 56.421875 0 L 40.5625 0 L 26.453125 -24.125 Z M 38.8125 -27.296875 "/></g></g><g style="fill:#ffffff;fill-opacity:1;"><g transform="translate(58.305299, 172.651583)"><path style="stroke:none" d="M 6.09375 0 L 6.09375 -55.078125 L 48.984375 -55.078125 L 48.984375 -43.984375 L 20.453125 -43.984375 L 20.453125 -32.796875 L 43.140625 -32.796875 L 43.140625 -22.359375 L 20.453125 -22.359375 L 20.453125 -11.09375 L 50.078125 -11.09375 L 50.078125 0 Z M 6.09375 0 "/></g></g><g style="fill:#ffffff;fill-opacity:1;"><g transform="translate(110.954452, 172.651583)"><path style="stroke:none" d="M 27.625 -55.90625 C 32.738281 -55.90625 37.253906 -55.113281 41.171875 -53.53125 C 45.097656 -51.945312 48.507812 -49.625 51.40625 -46.5625 L 44.484375 -37.296875 C 42.085938 -39.804688 39.507812 -41.6875 36.75 -42.9375 C 34 -44.1875 30.875 -44.8125 27.375 -44.8125 C 25.3125 -44.8125 23.640625 -44.585938 22.359375 -44.140625 C 21.085938 -43.703125 20.171875 -43.09375 19.609375 -42.3125 C 19.054688 -41.53125 18.78125 -40.640625 18.78125 -39.640625 C 18.78125 -38.472656 19.320312 -37.484375 20.40625 -36.671875 C 21.488281 -35.867188 23.253906 -35.191406 25.703125 -34.640625 L 34.96875 -32.546875 C 40.476562 -31.265625 44.507812 -29.398438 47.0625 -26.953125 C 49.625 -24.503906 50.90625 -21.25 50.90625 -17.1875 C 50.90625 -13.289062 49.898438 -9.992188 47.890625 -7.296875 C 45.890625 -4.597656 43.132812 -2.566406 39.625 -1.203125 C 36.125 0.148438 32.125 0.828125 27.625 0.828125 C 23.945312 0.828125 20.4375 0.425781 17.09375 -0.375 C 13.757812 -1.175781 10.757812 -2.328125 8.09375 -3.828125 C 5.425781 -5.335938 3.171875 -7.066406 1.328125 -9.015625 L 8.265625 -18.609375 C 9.648438 -16.992188 11.359375 -15.5625 13.390625 -14.3125 C 15.421875 -13.0625 17.644531 -12.070312 20.0625 -11.34375 C 22.488281 -10.625 24.953125 -10.265625 27.453125 -10.265625 C 29.398438 -10.265625 31.023438 -10.457031 32.328125 -10.84375 C 33.640625 -11.238281 34.601562 -11.820312 35.21875 -12.59375 C 35.832031 -13.375 36.140625 -14.296875 36.140625 -15.359375 C 36.140625 -16.523438 35.71875 -17.507812 34.875 -18.3125 C 34.039062 -19.125 32.457031 -19.804688 30.125 -20.359375 L 19.9375 -22.609375 C 16.820312 -23.335938 14.054688 -24.300781 11.640625 -25.5 C 9.222656 -26.695312 7.316406 -28.304688 5.921875 -30.328125 C 4.535156 -32.359375 3.84375 -34.90625 3.84375 -37.96875 C 3.84375 -41.414062 4.785156 -44.488281 6.671875 -47.1875 C 8.566406 -49.882812 11.296875 -52.007812 14.859375 -53.5625 C 18.421875 -55.125 22.675781 -55.90625 27.625 -55.90625 Z M 27.625 -55.90625 "/></g></g><g style="fill:#ffffff;fill-opacity:1;"><g transform="translate(164.77173, 172.651583)"><path style="stroke:none" d="M 6.09375 0 L 6.09375 -55.078125 L 48.984375 -55.078125 L 48.984375 -43.984375 L 20.453125 -43.984375 L 20.453125 -32.796875 L 43.140625 -32.796875 L 43.140625 -22.359375 L 20.453125 -22.359375 L 20.453125 -11.09375 L 50.078125 -11.09375 L 50.078125 0 Z M 6.09375 0 "/></g></g><g style="fill:#ffffff;fill-opacity:1;"><g transform="translate(217.420883, 172.651583)"><path style="stroke:none" d="M 56.15625 0 L 41.390625 0 L 37.546875 -12.4375 L 18.6875 -12.4375 L 14.765625 0 L 0.328125 0 L 19.6875 -55.078125 L 36.890625 -55.078125 Z M 21.359375 -22.203125 L 34.890625 -22.203125 L 28.125 -44.484375 Z M 21.359375 -22.203125 "/></g></g><g style="fill:#ffffff;fill-opacity:1;"><g transform="translate(273.908155, 172.651583)"><path style="stroke:none" d="M 32.375 -55.078125 C 38.945312 -55.078125 44.050781 -53.53125 47.6875 -50.4375 C 51.332031 -47.351562 53.15625 -43.253906 53.15625 -38.140625 C 53.15625 -32.515625 51.347656 -28.226562 47.734375 -25.28125 C 44.117188 -22.332031 39.03125 -20.859375 32.46875 -20.859375 L 31.125 -20.109375 L 20.203125 -20.109375 L 20.203125 0 L 6.09375 0 L 6.09375 -55.078125 Z M 30.375 -30.296875 C 33.15625 -30.296875 35.238281 -30.847656 36.625 -31.953125 C 38.019531 -33.066406 38.71875 -34.847656 38.71875 -37.296875 C 38.71875 -39.691406 38.019531 -41.445312 36.625 -42.5625 C 35.238281 -43.675781 33.15625 -44.234375 30.375 -44.234375 L 20.203125 -44.234375 L 20.203125 -30.296875 Z M 38.8125 -27.296875 L 56.421875 0 L 40.5625 0 L 26.453125 -24.125 Z M 38.8125 -27.296875 "/></g></g><g style="fill:#ffffff;fill-opacity:1;"><g transform="translate(330.812486, 172.651583)"><path style="stroke:none" d="M 54.90625 -15.765625 C 53.851562 -11.929688 52.15625 -8.773438 49.8125 -6.296875 C 47.476562 -3.828125 44.695312 -2.019531 41.46875 -0.875 C 38.25 0.257812 34.691406 0.828125 30.796875 0.828125 C 25.234375 0.828125 20.421875 -0.296875 16.359375 -2.546875 C 12.296875 -4.796875 9.175781 -8.035156 7 -12.265625 C 4.832031 -16.492188 3.75 -21.585938 3.75 -27.546875 C 3.75 -33.492188 4.832031 -38.582031 7 -42.8125 C 9.175781 -47.039062 12.296875 -50.28125 16.359375 -52.53125 C 20.421875 -54.78125 25.203125 -55.90625 30.703125 -55.90625 C 34.546875 -55.90625 38.082031 -55.363281 41.3125 -54.28125 C 44.539062 -53.195312 47.265625 -51.539062 49.484375 -49.3125 C 51.710938 -47.09375 53.300781 -44.226562 54.25 -40.71875 L 41.640625 -35.640625 C 40.859375 -39.085938 39.59375 -41.445312 37.84375 -42.71875 C 36.09375 -44 33.882812 -44.640625 31.21875 -44.640625 C 28.601562 -44.640625 26.332031 -44 24.40625 -42.71875 C 22.488281 -41.445312 21.015625 -39.546875 19.984375 -37.015625 C 18.953125 -34.484375 18.4375 -31.328125 18.4375 -27.546875 C 18.4375 -23.816406 18.910156 -20.671875 19.859375 -18.109375 C 20.804688 -15.546875 22.238281 -13.625 24.15625 -12.34375 C 26.070312 -11.070312 28.453125 -10.4375 31.296875 -10.4375 C 33.960938 -10.4375 36.226562 -11.171875 38.09375 -12.640625 C 39.957031 -14.117188 41.222656 -16.382812 41.890625 -19.4375 Z M 54.90625 -15.765625 "/></g></g><g style="fill:#ffffff;fill-opacity:1;"><g transform="translate(387.633497, 172.651583)"><path style="stroke:none" d="M 55.828125 -55.078125 L 55.828125 0 L 41.46875 0 L 41.46875 -55.078125 Z M 20.453125 -55.078125 L 20.453125 0 L 6.09375 0 L 6.09375 -55.078125 Z M 49.15625 -33.296875 L 49.15625 -22.203125 L 13.109375 -22.203125 L 13.109375 -33.296875 Z M 49.15625 -33.296875 "/></g></g><g style="fill:#ffffff;fill-opacity:1;"><g transform="translate(449.546266, 172.651583)"><path style="stroke:none" d=""/></g></g></g></g></g><path style="fill:none;stroke-width:6;stroke-linecap:butt;stroke-linejoin:miter;stroke:#abdd1c;stroke-opacity:1;stroke-miterlimit:4;" d="M -0.00176017 3.002277 L 558.639043 3.002277 " transform="matrix(0.749615,0,0,0.749615,246.290382,121.53851)"/></g></g></g></svg>